<mxfile host="app.diagrams.net" agent="Mozilla/5.0 (Macintosh; Intel Mac OS X 10_15_7) AppleWebKit/537.36 (KHTML, like Gecko) Chrome/133.0.0.0 Safari/537.36" version="26.1.0">
  <diagram name="Page-1" id="2p5IrB7aJhmK3qypdYUh">
    <mxGraphModel dx="1352" dy="775" grid="1" gridSize="10" guides="1" tooltips="1" connect="1" arrows="1" fold="1" page="1" pageScale="1" pageWidth="827" pageHeight="1169" math="0" shadow="0">
      <root>
        <mxCell id="0" />
        <mxCell id="1" parent="0" />
        <mxCell id="j1HVpfHaRSYJ6SBqP068-1" value="Identity Provider" style="rounded=0;whiteSpace=wrap;html=1;" parent="1" vertex="1">
          <mxGeometry x="124" y="582" width="120" height="50" as="geometry" />
        </mxCell>
        <mxCell id="xuoUc4yYm_Sh4eRMAjEt-2" value="KYC Profile" style="rounded=0;whiteSpace=wrap;html=1;" vertex="1" parent="1">
          <mxGeometry x="740" y="100" width="120" height="50" as="geometry" />
        </mxCell>
        <mxCell id="xuoUc4yYm_Sh4eRMAjEt-3" value="Platform User" style="rounded=0;whiteSpace=wrap;html=1;" vertex="1" parent="1">
          <mxGeometry x="580" y="100" width="120" height="50" as="geometry" />
        </mxCell>
        <mxCell id="xuoUc4yYm_Sh4eRMAjEt-4" value="Onboarding" style="rounded=0;whiteSpace=wrap;html=1;" vertex="1" parent="1">
          <mxGeometry x="294" y="577" width="120" height="50" as="geometry" />
        </mxCell>
        <mxCell id="xuoUc4yYm_Sh4eRMAjEt-5" value="Onboarding" style="rounded=0;whiteSpace=wrap;html=1;" vertex="1" parent="1">
          <mxGeometry x="200" y="190" width="120" height="50" as="geometry" />
        </mxCell>
        <mxCell id="xuoUc4yYm_Sh4eRMAjEt-6" value="Domain" style="rounded=0;whiteSpace=wrap;html=1;" vertex="1" parent="1">
          <mxGeometry x="40" y="20" width="230" height="30" as="geometry" />
        </mxCell>
        <mxCell id="xuoUc4yYm_Sh4eRMAjEt-7" value="Wallet" style="rounded=0;whiteSpace=wrap;html=1;" vertex="1" parent="1">
          <mxGeometry x="580" y="180" width="120" height="50" as="geometry" />
        </mxCell>
        <mxCell id="xuoUc4yYm_Sh4eRMAjEt-8" value="Notification" style="rounded=0;whiteSpace=wrap;html=1;" vertex="1" parent="1">
          <mxGeometry x="580" y="260" width="120" height="50" as="geometry" />
        </mxCell>
        <mxCell id="xuoUc4yYm_Sh4eRMAjEt-9" value="Bank Account" style="rounded=0;whiteSpace=wrap;html=1;" vertex="1" parent="1">
          <mxGeometry x="740" y="180" width="120" height="50" as="geometry" />
        </mxCell>
        <mxCell id="xuoUc4yYm_Sh4eRMAjEt-10" value="File Data" style="rounded=0;whiteSpace=wrap;html=1;" vertex="1" parent="1">
          <mxGeometry x="740" y="260" width="120" height="50" as="geometry" />
        </mxCell>
        <mxCell id="xuoUc4yYm_Sh4eRMAjEt-11" value="RWA Data" style="rounded=0;whiteSpace=wrap;html=1;" vertex="1" parent="1">
          <mxGeometry x="200" y="250" width="120" height="50" as="geometry" />
        </mxCell>
        <mxCell id="xuoUc4yYm_Sh4eRMAjEt-12" value="FT Tx" style="rounded=0;whiteSpace=wrap;html=1;" vertex="1" parent="1">
          <mxGeometry x="200" y="310" width="120" height="50" as="geometry" />
        </mxCell>
        <mxCell id="xuoUc4yYm_Sh4eRMAjEt-13" value="NFT Tx" style="rounded=0;whiteSpace=wrap;html=1;" vertex="1" parent="1">
          <mxGeometry x="200" y="370" width="120" height="50" as="geometry" />
        </mxCell>
        <mxCell id="xuoUc4yYm_Sh4eRMAjEt-14" value="Onboarding" style="rounded=0;whiteSpace=wrap;html=1;" vertex="1" parent="1">
          <mxGeometry x="200" y="430" width="120" height="50" as="geometry" />
        </mxCell>
        <mxCell id="xuoUc4yYm_Sh4eRMAjEt-16" value="Audit Log" style="rounded=0;whiteSpace=wrap;html=1;" vertex="1" parent="1">
          <mxGeometry x="580" y="340" width="120" height="50" as="geometry" />
        </mxCell>
      </root>
    </mxGraphModel>
  </diagram>
</mxfile>
